<svg width="15" height="11" viewBox="0 0 15 11" fill="none" xmlns="http://www.w3.org/2000/svg">
<path id="Vector" d="M2.25 1.9339H3.75V4.13375H6V5.60031H3.75V7.80016H2.25V5.60031H0V4.13375H2.25V1.9339ZM13.5 2.9339C13.5092 3.32156 13.438 3.70701 13.2905 4.06696C13.143 4.4269 12.9223 4.75386 12.6419 5.02804C12.3614 5.30223 12.027 5.51795 11.6589 5.66216C11.2907 5.80636 10.8965 5.87606 10.5 5.86703C10.1035 5.87606 9.70926 5.80636 9.34111 5.66216C8.97296 5.51795 8.63855 5.30223 8.35811 5.02804C8.07768 4.75386 7.85704 4.4269 7.70954 4.06696C7.56205 3.70701 7.49076 3.32156 7.5 2.9339C7.49076 2.54625 7.56205 2.16079 7.70954 1.80085C7.85704 1.4409 8.07768 1.11395 8.35811 0.839763C8.63855 0.565577 8.97296 0.349856 9.34111 0.20565C9.70926 0.0614432 10.1035 -0.00825285 10.5 0.000777703C10.8965 -0.00825285 11.2907 0.0614432 11.6589 0.20565C12.027 0.349856 12.3614 0.565577 12.6419 0.839763C12.9223 1.11395 13.143 1.4409 13.2905 1.80085C13.438 2.16079 13.5092 2.54625 13.5 2.9339ZM9 2.9339C8.99035 3.12899 9.02255 3.3239 9.09452 3.5061C9.16649 3.6883 9.27664 3.85377 9.4179 3.99188C9.55916 4.12999 9.7284 4.23769 9.91476 4.30806C10.1011 4.37842 10.3005 4.4099 10.5 4.40047C10.6995 4.4099 10.8989 4.37842 11.0852 4.30806C11.2716 4.23769 11.4408 4.12999 11.5821 3.99188C11.7234 3.85377 11.8335 3.6883 11.9055 3.5061C11.9775 3.3239 12.0096 3.12899 12 2.9339C12.0096 2.73881 11.9775 2.54391 11.9055 2.36171C11.8335 2.1795 11.7234 2.01403 11.5821 1.87592C11.4408 1.73781 11.2716 1.63012 11.0852 1.55975C10.8989 1.48939 10.6995 1.45791 10.5 1.46734C10.3005 1.45791 10.1011 1.48939 9.91476 1.55975C9.7284 1.63012 9.55916 1.73781 9.4179 1.87592C9.27664 2.01403 9.16649 2.1795 9.09452 2.36171C9.02255 2.54391 8.99035 2.73881 9 2.9339ZM13.5 10.2667C13.5 9.68328 13.2629 9.12374 12.841 8.71119C12.419 8.29864 11.8467 8.06687 11.25 8.06687H9.75C9.15326 8.06687 8.58097 8.29864 8.15901 8.71119C7.73705 9.12374 7.5 9.68328 7.5 10.2667V11H6V10.2667C6 9.78524 6.097 9.30847 6.28545 8.86364C6.47391 8.41882 6.75013 8.01463 7.09835 7.67418C7.44657 7.33372 7.85997 7.06365 8.31494 6.8794C8.76991 6.69515 9.25754 6.60031 9.75 6.60031H11.25C12.2446 6.60031 13.1984 6.98659 13.9017 7.67418C14.6049 8.36176 15 9.29433 15 10.2667V11H13.5V10.2667Z" fill="black"/>
</svg>
