<svg width="14" height="13" viewBox="0 0 14 13" fill="none" xmlns="http://www.w3.org/2000/svg">
<g id="Group 4">
<path id="Star 1" d="M7 0L8.06763 1.47721L9.64379 0.561954L10.0183 2.3457L11.8304 2.15065L11.447 3.9325L13.1819 4.49139L12.1069 5.96325L13.4644 7.17943L11.8837 8.0868L12.6292 9.75L10.816 9.93599L10.8206 11.7586L9.08859 11.1911L8.35143 12.858L7 11.635L5.64857 12.858L4.91141 11.1911L3.1794 11.7586L3.18395 9.93599L1.37083 9.75L2.11632 8.0868L0.535608 7.17943L1.89313 5.96325L0.818133 4.49139L2.55296 3.9325L2.16956 2.15065L3.98172 2.3457L4.35621 0.561954L5.93237 1.47721L7 0Z" fill="#3597F0"/>
<path id="Vector 1" d="M4.83337 6.46315L6.27295 8.125L9.70837 4.875" stroke="white"/>
</g>
</svg>
