<svg width="20" height="23" viewBox="0 0 20 23" fill="none" xmlns="http://www.w3.org/2000/svg">
<path d="M11.4291 1.4375V2.2407C14.6659 2.75775 17.1437 5.5793 17.1437 8.98438V10.4848C17.1437 12.5242 17.8357 14.5053 19.0992 16.1L19.7644 16.9355C20.0233 17.259 20.0724 17.7037 19.8938 18.0766C19.7153 18.4494 19.3403 18.6875 18.9295 18.6875H1.07146C0.659385 18.6875 0.284142 18.4494 0.10574 18.0766C0.0183142 17.8934 -0.0159536 17.6892 0.00687973 17.4873C0.0297131 17.2855 0.10872 17.0942 0.234809 16.9355L0.900468 16.1C2.16705 14.5053 2.85726 12.5242 2.85726 10.4848V8.98438C2.85726 5.5793 5.33507 2.75775 8.57184 2.2407V1.4375C8.57184 0.64373 9.21027 0 10.0005 0C10.7907 0 11.4291 0.64373 11.4291 1.4375ZM9.64333 4.3125C7.0807 4.3125 5.00023 6.40586 5.00023 8.98438V10.4848C5.00023 12.6365 4.38056 14.7344 3.22827 16.5312H16.7732C15.6213 14.7344 15.0007 12.6365 15.0007 10.4848V8.98438C15.0007 6.40586 12.9203 4.3125 10.3576 4.3125H9.64333ZM12.8578 20.125C12.8578 20.8482 12.5587 21.6209 12.0229 22.16C11.4872 22.699 10.7193 23 10.0005 23C9.24152 23 8.5138 22.699 7.97806 22.16C7.44232 21.6209 7.1432 20.8482 7.1432 20.125H12.8578Z" fill="#212121"/>
</svg>
