<svg width="10" height="16" viewBox="0 0 10 16" fill="none" xmlns="http://www.w3.org/2000/svg">
<path id="Vector" d="M9.48856 0.437198C10.1445 1.0386 10.196 1.87588 9.48856 2.61108L3.97781 8.00163L9.48856 13.3922C10.196 14.1274 10.1445 14.966 9.48856 15.5633C8.8341 16.1647 7.72812 16.1261 7.11336 15.5633C6.49861 15.0033 0.492223 9.08719 0.492223 9.08719C0.336545 8.94631 0.212725 8.77746 0.128155 8.59071C0.0435864 8.40396 5.95103e-07 8.20315 6.03972e-07 8.00025C6.12841e-07 7.79736 0.0435864 7.59654 0.128155 7.4098C0.212725 7.22305 0.336545 7.0542 0.492223 6.91332C0.492223 6.91332 6.49861 0.999978 7.11336 0.437198C7.72812 -0.126963 8.8341 -0.164205 9.48856 0.437198Z" fill="#212121"/>
</svg>
