<svg width="22" height="20" viewBox="0 0 22 20" fill="none" xmlns="http://www.w3.org/2000/svg">
<g id="Stories-heart">
<path id="Vector" d="M11 19.9911C10.2905 19.3559 9.4886 18.6951 8.6405 17.9921H8.6295C5.64301 15.5267 2.25831 12.737 0.763412 9.39426C0.272812 8.33036 0.0121126 7.17317 1.26253e-05 5.99821C-0.00161725 5.20081 0.154575 4.41113 0.459419 3.67552C0.764262 2.93991 1.21161 2.27321 1.7752 1.71456C2.33879 1.15592 3.00725 0.716586 3.74134 0.422367C4.47543 0.128148 5.26035 -0.0150281 6.05001 0.00124701C7.3487 0.00331796 8.61942 0.382255 9.7108 1.09292C10.1904 1.40717 10.6243 1.78729 11 2.22234C11.3784 1.78923 11.8118 1.40942 12.2903 1.09292C13.3812 0.382115 14.6516 0.00315555 15.95 0.00124701C16.7397 -0.0150281 17.5246 0.128148 18.2587 0.422367C18.9927 0.716586 19.6612 1.15592 20.2248 1.71456C20.7884 2.27321 21.2357 2.93991 21.5406 3.67552C21.8454 4.41113 22.0016 5.20081 22 5.99821C21.9888 7.17407 21.7285 8.33391 21.2366 9.39982C19.7417 12.7426 16.3581 15.5312 13.3716 17.9921L13.3606 18.001C12.5114 18.6995 11.7106 19.3603 11.0011 20L11 19.9911ZM6.05001 2.22234C5.02537 2.2094 4.03709 2.60531 3.30001 3.32401C2.94851 3.67259 2.67 4.08894 2.48103 4.54834C2.29207 5.00773 2.1965 5.50079 2.20001 5.99821C2.21211 6.85333 2.40461 7.69735 2.76321 8.47251C3.46889 9.91477 4.42104 11.22 5.57591 12.3283C6.666 13.4389 7.92 14.5139 9.0046 15.4179C9.3049 15.6678 9.6107 15.9198 9.9165 16.1719L10.109 16.3307C10.4027 16.5728 10.7063 16.8238 11 17.0704L11.0143 17.057L11.0209 17.0515H11.0275L11.0374 17.0437H11.0484L11.0682 17.0271L11.1133 16.9904L11.121 16.9837L11.1331 16.9749H11.1397L11.1496 16.966L11.88 16.3607L12.0714 16.2019C12.3805 15.9476 12.6863 15.6955 12.9866 15.4456C14.0712 14.5417 15.3263 13.4678 16.4164 12.3517C17.5715 11.244 18.5237 9.93903 19.2291 8.49694C19.5943 7.71512 19.7901 6.86221 19.8011 5.99821C19.8032 5.50221 19.7069 5.01081 19.5178 4.55303C19.3286 4.09525 19.0506 3.68037 18.7 3.33289C17.9643 2.61095 16.9759 2.21177 15.95 2.22234C15.3311 2.21703 14.718 2.34402 14.1512 2.59494C13.5843 2.84587 13.0765 3.21507 12.661 3.67827L11 5.61063L9.339 3.67827C8.92354 3.21507 8.4157 2.84587 7.84884 2.59494C7.28198 2.34402 6.66894 2.21703 6.05001 2.22234Z" fill="white"/>
</g>
</svg>
