<svg width="16" height="4" viewBox="0 0 16 4" fill="none" xmlns="http://www.w3.org/2000/svg">
<g id="Group">
<path id="Vector" d="M1.77778 3C2.20733 3 2.55556 2.65178 2.55556 2.22222C2.55556 1.79267 2.20733 1.44444 1.77778 1.44444C1.34822 1.44444 1 1.79267 1 2.22222C1 2.65178 1.34822 3 1.77778 3Z" stroke="white" stroke-width="2"/>
<path id="Vector_2" d="M7.99995 3C8.4295 3 8.77772 2.65178 8.77772 2.22222C8.77772 1.79267 8.4295 1.44444 7.99995 1.44444C7.57039 1.44444 7.22217 1.79267 7.22217 2.22222C7.22217 2.65178 7.57039 3 7.99995 3Z" stroke="white" stroke-width="2"/>
<path id="Vector_3" d="M14.2221 3C14.6517 3 14.9999 2.65178 14.9999 2.22222C14.9999 1.79267 14.6517 1.44444 14.2221 1.44444C13.7926 1.44444 13.4443 1.79267 13.4443 2.22222C13.4443 2.65178 13.7926 3 14.2221 3Z" stroke="white" stroke-width="2"/>
</g>
</svg>
